<svg version="1.0" xmlns="http://www.w3.org/2000/svg" x="0px" y="0px" id="iconMold" viewBox="0 0 24 24"><path id="path-1_1_" d="M14.6,8.5c0.7-0.2,1.5-0.1,2.1,0.3l0,0c0.6,0.4,1.1,0.9,1.3,1.7c0.2,0.7,0.1,1.5-0.3,2.1 l0,0c-0.4,0.6-0.9,1.1-1.7,1.3c-0.7,0.2-1.5,0.1-2.1-0.3l0,0c-0.6-0.4-1.1-0.9-1.3-1.7c-0.2-0.7-0.1-1.5,0.3-2.1 C13.3,9.1,13.9,8.7,14.6,8.5L14.6,8.5z M16,9.9c-0.3-0.2-0.7-0.2-1-0.1c-0.4,0.1-0.7,0.3-0.8,0.6c-0.2,0.3-0.2,0.7-0.1,1 c0.1,0.4,0.3,0.7,0.6,0.8l0,0c0.3,0.2,0.7,0.2,1,0.1c0.4-0.1,0.7-0.3,0.8-0.6l0,0c0.2-0.3,0.2-0.7,0.1-1 C16.6,10.4,16.3,10.1,16,9.9L16,9.9z M10.9,16.6c-0.4,0.4-0.8,0.6-1.3,0.7c-0.5,0.1-1.1-0.1-1.5-0.5l0,0c-0.4-0.4-0.7-0.9-0.7-1.4 c-0.1-0.5,0.1-1.1,0.5-1.5c0.4-0.4,0.9-0.7,1.4-0.7c0.5-0.1,1.1,0.1,1.5,0.5l0.1,0.1l0,0c0.4,0.4,0.6,0.8,0.7,1.3 C11.5,15.5,11.3,16.1,10.9,16.6L10.9,16.6L10.9,16.6z M9.4,15.9c0.2,0,0.3-0.1,0.5-0.2c0.1-0.1,0.2-0.3,0.2-0.5 c0-0.2-0.1-0.3-0.2-0.5l0,0c-0.1-0.1-0.3-0.2-0.5-0.1c-0.2,0-0.3,0.1-0.5,0.2c-0.1,0.1-0.2,0.3-0.2,0.5c0,0.2,0.1,0.3,0.2,0.5 C9.1,15.8,9.3,15.9,9.4,15.9L9.4,15.9z M15.4,1.5C15.8,1.7,16,2,15.8,2.4l-0.4,1.3c1.3,0.5,2.5,1.4,3.4,2.5l1.1-0.8 c0.3-0.2,0.7-0.2,1,0.2c0.2,0.3,0.2,0.7-0.2,1l-1.1,0.8c0.7,1.2,1.2,2.5,1.3,4h1.4c0.4,0,0.7,0.3,0.7,0.7c0,0.4-0.3,0.7-0.7,0.7 h-1.4c-0.1,1.5-0.6,2.8-1.3,4l1.1,0.8c0.3,0.2,0.4,0.7,0.2,1c-0.2,0.3-0.7,0.4-1,0.2l-1.1-0.8c-0.9,1.1-2.1,1.9-3.4,2.5l0.4,1.3 c0.1,0.4-0.1,0.7-0.4,0.9c-0.4,0.1-0.7-0.1-0.9-0.4l-0.4-1.3c-0.7,0.2-1.4,0.2-2.1,0.2c-0.7,0-1.4-0.1-2.1-0.2L9.5,22 c-0.1,0.4-0.5,0.6-0.9,0.4C8.2,22.3,8,22,8.2,21.6l0.4-1.3c-1.3-0.5-2.5-1.4-3.4-2.5l-1.1,0.8c-0.3,0.2-0.7,0.2-1-0.2 c-0.2-0.3-0.2-0.7,0.2-1l1.1-0.8c-0.7-1.2-1.2-2.5-1.3-4H1.7C1.3,12.7,1,12.4,1,12c0-0.4,0.3-0.7,0.7-0.7h1.4 c0.1-1.5,0.6-2.8,1.3-4L3.3,6.5c-0.3-0.2-0.4-0.7-0.2-1c0.2-0.3,0.7-0.4,1-0.2l1.1,0.8c0.9-1.1,2.1-1.9,3.4-2.5L8.2,2.4 C8,2,8.2,1.7,8.6,1.5C9,1.4,9.3,1.6,9.5,2l0.4,1.3c0.7-0.2,1.4-0.2,2.1-0.2c0.7,0,1.4,0.1,2.1,0.2L14.5,2C14.7,1.6,15,1.4,15.4,1.5 z M12,4.4c-4.2,0-7.6,3.4-7.6,7.6s3.4,7.6,7.6,7.6s7.6-3.4,7.6-7.6S16.2,4.4,12,4.4z M9,8c0.6,0.5,0.7,1.3,0.3,1.9 c-0.5,0.6-1.3,0.7-1.9,0.3C6.7,9.7,6.6,8.8,7.1,8.2C7.6,7.6,8.4,7.5,9,8z"></path></svg>