<svg id="iconRadon" width="30px" height="30px" viewBox="0 0 30 30" version="1.1" xmlns="http://www.w3.org/2000/svg"><path d="M10,13.2c0-1.8,0.9-3.4,2.5-4.3c0.6-0.3,0.8-1.1,0.4-1.7L9.2,0.6C9.1,0.3,8.3-0.3,7.5,0.2C2.9,2.9,0,7.8,0,13.2c0,0.7,0.6,1.2,1.2,1.2h7.5C9.4,14.4,10,13.8,10,13.2z M2.6,11.9c0.3-3.6,2.2-6.8,5.1-8.8l2.5,4.3c-1.3,1.1-2.4,2.8-2.6,4.5h-5V11.9z"></path><path d="M21.3,14.4h7.5c0.7,0,1.2-0.6,1.2-1.2c0-5.4-2.9-10.3-7.5-13c-0.8-0.4-1.6,0.1-1.7,0.4l-3.7,6.6c-0.3,0.6-0.1,1.3,0.4,1.7c1.6,0.9,2.5,2.5,2.5,4.3C20,13.8,20.6,14.4,21.3,14.4z M27.4,11.8h-5c-0.2-1.7-1.2-3.4-2.6-4.5l2.5-4.3c2.9,2,4.8,5.3,5.1,8.8C27.4,11.9,27.4,11.8,27.4,11.8z"></path><path d="M10.7,18l-3.8,6.5c-0.3,0.6-0.1,1.3,0.4,1.7c4.7,2.7,10.4,2.7,15,0c0.8-0.4,0.7-1.5,0.4-1.7L18.9,18c-0.3-0.6-1.1-0.8-1.7-0.4c-1.6,0.9-3.4,0.9-4.9,0C11.9,17.2,11.1,17.4,10.7,18z M10,24.6l2.6-4.4c1.6,0.7,3.5,0.6,5.1,0l2.5,4.3C16.9,26,13.1,26,10,24.6L10,24.6z"></path><circle cx="15" cy="13.2" r="3.4"></circle></svg>