<svg xmlns="http://www.w3.org/2000/svg" viewBox="0 0 57.6 73.66"><title>Asset 11</title><g id="Layer_2" data-name="Layer 2"><g id="Layer_2-2" data-name="Layer 2"><path d="M31.35,22.62a3.65,3.65,0,0,0-5.1,0h0a3.61,3.61,0,0,0,0,5.09h0a3.62,3.62,0,0,0,5.1,0h0a3.61,3.61,0,0,0,0-5.09ZM0,25.18A28.78,28.78,0,0,1,14.41.24,1.78,1.78,0,0,1,16.85.9l8.1,14-1.55.9A10.73,10.73,0,0,0,18,25.18V27H1.8A1.8,1.8,0,0,1,0,25.18Zm14.51-1.8a14.47,14.47,0,0,1,5.6-9.68L14.68,4.3a25.16,25.16,0,0,0-11,19.08Zm7.34,10.26,1.55.89A10.49,10.49,0,0,0,26,35.61a10.78,10.78,0,0,0,5.6,0,10.49,10.49,0,0,0,2.6-1.08l1.56-.9.9,1.56q3.59,6.24,7.19,12.47a1.78,1.78,0,0,1-.65,2.45,28.73,28.73,0,0,1-28.8,0,1.78,1.78,0,0,1-.65-2.45C16.54,43.17,19.19,38.24,21.85,33.64Zm12.54,4.81a14.3,14.3,0,0,1-9.32.63,13.16,13.16,0,0,1-1.86-.64l-5.43,9.4a25.22,25.22,0,0,0,22,0ZM50.63,12.57A25.06,25.06,0,0,0,42.92,4.3l-5.43,9.4a14.47,14.47,0,0,1,5.6,9.68H53.94A25.3,25.3,0,0,0,50.63,12.57Zm3.1-1.79a28.78,28.78,0,0,1,3.87,14.4A1.81,1.81,0,0,1,55.8,27H39.6v-1.8a10.73,10.73,0,0,0-5.4-9.36l-1.55-.9.9-1.55L40.75.9A1.79,1.79,0,0,1,43.19.24,28.65,28.65,0,0,1,53.73,10.78ZM28.8,18a7.17,7.17,0,0,1,5.08,2.1h0a7.18,7.18,0,0,1,0,10.17h0a7.17,7.17,0,0,1-10.16,0h0a7.18,7.18,0,0,1,0-10.17h0A7.17,7.17,0,0,1,28.8,18Z"/><path d="M55.51,71.69h0V62h1.15V73.37H55.25l-6.59-9.75h0v9.75H47.48V62h1.44Zm-11.65-4a5.34,5.34,0,0,0-.32-1.88,4.65,4.65,0,0,0-.93-1.58,4.24,4.24,0,0,0-1.48-1.07,4.58,4.58,0,0,0-2-.4,4.64,4.64,0,0,0-2,.4,4.43,4.43,0,0,0-1.48,1.07,4.79,4.79,0,0,0-.92,1.58,5.34,5.34,0,0,0-.32,1.88,5.44,5.44,0,0,0,.32,1.89,4.7,4.7,0,0,0,.92,1.56,4.57,4.57,0,0,0,1.48,1.07,4.64,4.64,0,0,0,2,.4,4.58,4.58,0,0,0,2-.4,4.37,4.37,0,0,0,1.48-1.07,4.56,4.56,0,0,0,.93-1.56A5.44,5.44,0,0,0,43.86,67.71Zm1.22,0a6.2,6.2,0,0,1-.45,2.39,5.63,5.63,0,0,1-3.11,3.12,6.34,6.34,0,0,1-4.69,0,5.63,5.63,0,0,1-3.11-3.12,6.55,6.55,0,0,1,0-4.77A5.65,5.65,0,0,1,35,63.44a5.71,5.71,0,0,1,1.87-1.24,6.34,6.34,0,0,1,4.69,0,5.71,5.71,0,0,1,1.87,1.24,5.65,5.65,0,0,1,1.24,1.88A6.15,6.15,0,0,1,45.08,67.7ZM22.92,72.34h2.29a5.69,5.69,0,0,0,2.23-.4,4.53,4.53,0,0,0,1.57-1A4.38,4.38,0,0,0,30,69.42,4.9,4.9,0,0,0,30,66,4.29,4.29,0,0,0,29,64.51a4.7,4.7,0,0,0-1.57-1.05,5.88,5.88,0,0,0-2.23-.4H22.92ZM21.77,62h3.76a6.87,6.87,0,0,1,2.12.35,5.85,5.85,0,0,1,1.92,1.07A5.29,5.29,0,0,1,31,65.23a6,6,0,0,1,0,5A5.29,5.29,0,0,1,29.57,72,5.85,5.85,0,0,1,27.65,73a6.87,6.87,0,0,1-2.12.35H21.77Zm-9.62,7.3h5l-2.49-6Zm-1.66,4H9.22L14.12,62h1.12L20.1,73.37H18.82l-1.25-3H11.72ZM2.13,67.08h2a3.91,3.91,0,0,0,2.15-.5A1.71,1.71,0,0,0,7,65.06a2,2,0,0,0-.21-.94,1.7,1.7,0,0,0-.57-.62,2.83,2.83,0,0,0-.9-.36A6,6,0,0,0,4.18,63h-2Zm0,6.29H1V62H4.31a6.74,6.74,0,0,1,1.54.16,3.57,3.57,0,0,1,1.24.52,2.44,2.44,0,0,1,.8.94,3,3,0,0,1,.29,1.4,2.75,2.75,0,0,1-.83,2,3,3,0,0,1-.91.6A4.22,4.22,0,0,1,5.29,68L8.6,73.37H7.19l-3.14-5.3H2.13Z"/></g></g></svg>