<svg id="iconIaq" width="30px" height="30px" viewBox="0 0 30 30" version="1.1" xmlns="http://www.w3.org/2000/svg"><path d="M20.6961797,10.78125 L20.6961797,10.7791406 C23.6314922,10.7360156 26.0064141,8.33601563 26.0064141,5.390625 C26.0064141,2.41828125 23.5881328,0 20.6157891,0 C17.6828203,0 15.2910234,2.35523438 15.2282109,5.2734375 L17.8093828,5.2734375 C17.8714922,3.7771875 19.1045391,2.578125 20.6157891,2.578125 C22.1666484,2.578125 23.4282891,3.83976562 23.4282891,5.390625 C23.4282891,6.94148438 22.1666484,8.203125 20.6157891,8.203125 C20.5792266,8.203125 20.5440703,8.19890625 20.5077422,8.19773438 L20.5077422,8.203125 L16.0192266,8.203125 L3.16399219,8.203125 L3.16399219,10.78125 L20.6961797,10.78125 Z" id="Fill-1"></path><g id="Group-5" transform="translate(0.000000, 14.062500)"><path d="M24.6805547,0.0020625 L24.6805547,-4.6875e-05 L-7.03125e-05,-4.6875e-05 L-7.03125e-05,2.57807813 L7.81610156,2.57807813 L12.3046172,2.57807813 L12.3046172,2.58370313 C12.3409453,2.58229688 12.3761016,2.57807813 12.4126641,2.57807813 C13.9635234,2.57807813 15.2251641,3.83995313 15.2251641,5.39057813 C15.2251641,6.9414375 13.9635234,8.20307812 12.4126641,8.20307812 C10.9014141,8.20307812 9.66836719,7.00401563 9.60625781,5.50776563 L7.02508594,5.50776563 C7.08766406,8.42596875 9.47969531,10.7812031 12.4126641,10.7812031 C15.3850078,10.7812031 17.8032891,8.36292187 17.8032891,5.39057813 C17.8032891,4.36073438 17.5126641,3.39745313 17.0094609,2.57807813 L20.0036016,2.57807813 L24.4921172,2.57807813 L24.4921172,2.58370313 C24.5284453,2.58229688 24.5636016,2.57807813 24.6001641,2.57807813 C26.1510234,2.57807813 27.4126641,3.83995313 27.4126641,5.39057813 C27.4126641,6.9414375 26.1510234,8.20307812 24.6001641,8.20307812 C23.0889141,8.20307812 21.8558672,7.00401563 21.7937578,5.50776563 L19.2125859,5.50776563 C19.2753984,8.42596875 21.6671953,10.7812031 24.6001641,10.7812031 C27.5725078,10.7812031 29.9907891,8.36292187 29.9907891,5.39057813 C29.9907891,2.4451875 27.6158672,0.045421875 24.6805547,0.0020625" id="Fill-3"></path></g></svg>